<?xml version="1.0" encoding="utf-8" standalone="no"?>
<!DOCTYPE svg PUBLIC "-//W3C//DTD SVG 1.1//EN"
  "http://www.w3.org/Graphics/SVG/1.1/DTD/svg11.dtd">
<svg xmlns:xlink="http://www.w3.org/1999/xlink" width="712.8pt" height="424.8pt" viewBox="0 0 712.8 424.8" xmlns="http://www.w3.org/2000/svg" version="1.1">
 <title>std_violin</title>
 <metadata>
  <rdf:RDF xmlns:dc="http://purl.org/dc/elements/1.1/" xmlns:cc="http://creativecommons.org/ns#" xmlns:rdf="http://www.w3.org/1999/02/22-rdf-syntax-ns#">
   <cc:Work>
    <dc:type rdf:resource="http://purl.org/dc/dcmitype/StillImage"/>
    <dc:title>std_violin</dc:title>
    <dc:date>2025-07-11T22:21:10.938933</dc:date>
    <dc:format>image/svg+xml</dc:format>
    <dc:creator>
     <cc:Agent>
      <dc:title>Matplotlib v3.10.3, https://matplotlib.org/</dc:title>
     </cc:Agent>
    </dc:creator>
   </cc:Work>
  </rdf:RDF>
 </metadata>
 <defs>
  <style type="text/css">*{stroke-linejoin: round; stroke-linecap: butt}</style>
 </defs>
 <g id="figure_1">
  <g id="patch_1">
   <path d="M 0 424.8 
L 712.8 424.8 
L 712.8 0 
L 0 0 
z
" style="fill: #ffffff"/>
  </g>
  <g id="axes_1">
   <g id="patch_2">
    <path d="M 38.830886 402.629888 
L 705.6 402.629888 
L 705.6 22.166376 
L 38.830886 22.166376 
z
" style="fill: #ffffff"/>
   </g>
   <g id="FillBetweenPolyCollection_1">
    <defs>
     <path id="m729b5eb9a5" d="M 98.390425 -39.463908 
L 90.399533 -39.463908 
L 88.539495 -42.957604 
L 86.261388 -46.4513 
L 83.606764 -49.944997 
L 80.641994 -53.438693 
L 77.434616 -56.932389 
L 74.024755 -60.426085 
L 70.417845 -63.919781 
L 66.619096 -67.413477 
L 62.697648 -70.907174 
L 58.836722 -74.40087 
L 55.328093 -77.894566 
L 52.506035 -81.388262 
L 50.65586 -84.881958 
L 49.943705 -88.375654 
L 50.39492 -91.86935 
L 51.918187 -95.363047 
L 54.35043 -98.856743 
L 57.49246 -102.350439 
L 61.120149 -105.844135 
L 64.982408 -109.337831 
L 68.811441 -112.831527 
L 72.356597 -116.325224 
L 75.427971 -119.81892 
L 77.929444 -123.312616 
L 79.872508 -126.806312 
L 81.367705 -130.300008 
L 82.586829 -133.793704 
L 83.698052 -137.287401 
L 84.800543 -140.781097 
L 85.896324 -144.274793 
L 86.915685 -147.768489 
L 87.777248 -151.262185 
L 88.445359 -154.755881 
L 88.954623 -158.249578 
L 89.39219 -161.743274 
L 89.85034 -165.23697 
L 90.3774 -168.730666 
L 90.955551 -172.224362 
L 91.516472 -175.718058 
L 91.98108 -179.211754 
L 92.297497 -182.705451 
L 92.459442 -186.199147 
L 92.503365 -189.692843 
L 92.491204 -193.186539 
L 92.485784 -196.680235 
L 92.527006 -200.173931 
L 92.619897 -203.667628 
L 92.741722 -207.161324 
L 92.862637 -210.65502 
L 92.964877 -214.148716 
L 93.049213 -217.642412 
L 93.129093 -221.136108 
L 93.219926 -224.629805 
L 93.329676 -228.123501 
L 93.453595 -231.617197 
L 93.574839 -235.110893 
L 93.671773 -238.604589 
L 93.729156 -242.098285 
L 93.74683 -245.591982 
L 93.740064 -249.085678 
L 93.731206 -252.579374 
L 93.738461 -256.07307 
L 93.769265 -259.566766 
L 93.821453 -263.060462 
L 93.88887 -266.554158 
L 93.965356 -270.047855 
L 94.04444 -273.541551 
L 94.117675 -277.035247 
L 94.175991 -280.528943 
L 94.214402 -284.022639 
L 94.235741 -287.516335 
L 94.249315 -291.010032 
L 94.265042 -294.503728 
L 94.287706 -297.997424 
L 94.315478 -301.49112 
L 94.342871 -304.984816 
L 94.364977 -308.478512 
L 94.379849 -311.972209 
L 94.388305 -315.465905 
L 94.392405 -318.959601 
L 94.394111 -322.453297 
L 94.394722 -325.946993 
L 94.394904 -329.440689 
L 94.394922 -332.934386 
L 94.394805 -336.428082 
L 94.394372 -339.921778 
L 94.3931 -343.415474 
L 94.389888 -346.90917 
L 94.382899 -350.402866 
L 94.369837 -353.896562 
L 94.348953 -357.390259 
L 94.320546 -360.883955 
L 94.287892 -364.377651 
L 94.256467 -367.871347 
L 94.231618 -371.365043 
L 94.216475 -374.858739 
L 94.211874 -378.352436 
L 94.217815 -381.846132 
L 94.234271 -385.339828 
L 94.555687 -385.339828 
L 94.555687 -385.339828 
L 94.572143 -381.846132 
L 94.578084 -378.352436 
L 94.573483 -374.858739 
L 94.55834 -371.365043 
L 94.533491 -367.871347 
L 94.502066 -364.377651 
L 94.469412 -360.883955 
L 94.441005 -357.390259 
L 94.420121 -353.896562 
L 94.407059 -350.402866 
L 94.40007 -346.90917 
L 94.396858 -343.415474 
L 94.395586 -339.921778 
L 94.395153 -336.428082 
L 94.395036 -332.934386 
L 94.395054 -329.440689 
L 94.395236 -325.946993 
L 94.395847 -322.453297 
L 94.397553 -318.959601 
L 94.401653 -315.465905 
L 94.410108 -311.972209 
L 94.42498 -308.478512 
L 94.447086 -304.984816 
L 94.47448 -301.49112 
L 94.502252 -297.997424 
L 94.524916 -294.503728 
L 94.540643 -291.010032 
L 94.554217 -287.516335 
L 94.575556 -284.022639 
L 94.613967 -280.528943 
L 94.672283 -277.035247 
L 94.745517 -273.541551 
L 94.824602 -270.047855 
L 94.901088 -266.554158 
L 94.968505 -263.060462 
L 95.020693 -259.566766 
L 95.051497 -256.07307 
L 95.058752 -252.579374 
L 95.049894 -249.085678 
L 95.043128 -245.591982 
L 95.060802 -242.098285 
L 95.118185 -238.604589 
L 95.215118 -235.110893 
L 95.336363 -231.617197 
L 95.460282 -228.123501 
L 95.570032 -224.629805 
L 95.660864 -221.136108 
L 95.740745 -217.642412 
L 95.825081 -214.148716 
L 95.927321 -210.65502 
L 96.048236 -207.161324 
L 96.170061 -203.667628 
L 96.262952 -200.173931 
L 96.304173 -196.680235 
L 96.298754 -193.186539 
L 96.286593 -189.692843 
L 96.330516 -186.199147 
L 96.492461 -182.705451 
L 96.808878 -179.211754 
L 97.273486 -175.718058 
L 97.834407 -172.224362 
L 98.412558 -168.730666 
L 98.939618 -165.23697 
L 99.397768 -161.743274 
L 99.835334 -158.249578 
L 100.344599 -154.755881 
L 101.01271 -151.262185 
L 101.874273 -147.768489 
L 102.893633 -144.274793 
L 103.989415 -140.781097 
L 105.091906 -137.287401 
L 106.203128 -133.793704 
L 107.422253 -130.300008 
L 108.91745 -126.806312 
L 110.860514 -123.312616 
L 113.361987 -119.81892 
L 116.433361 -116.325224 
L 119.978517 -112.831527 
L 123.80755 -109.337831 
L 127.669809 -105.844135 
L 131.297498 -102.350439 
L 134.439528 -98.856743 
L 136.871771 -95.363047 
L 138.395038 -91.86935 
L 138.846253 -88.375654 
L 138.134098 -84.881958 
L 136.283922 -81.388262 
L 133.461865 -77.894566 
L 129.953236 -74.40087 
L 126.09231 -70.907174 
L 122.170862 -67.413477 
L 118.372113 -63.919781 
L 114.765202 -60.426085 
L 111.355342 -56.932389 
L 108.147964 -53.438693 
L 105.183194 -49.944997 
L 102.52857 -46.4513 
L 100.250463 -42.957604 
L 98.390425 -39.463908 
z
" style="stroke: #3d3d3d; stroke-width: 1.25"/>
    </defs>
    <g clip-path="url(#p00793c2304)">
     <use xlink:href="#m729b5eb9a5" x="0" y="424.8" style="fill: #3274a1; stroke: #3d3d3d; stroke-width: 1.25"/>
    </g>
   </g>
   <g id="FillBetweenPolyCollection_2">
    <defs>
     <path id="m660e360e6e" d="M 209.199267 -39.463908 
L 201.847062 -39.463908 
L 200.361653 -42.957604 
L 198.575953 -46.4513 
L 196.508926 -49.944997 
L 194.197892 -53.438693 
L 191.692583 -56.932389 
L 189.039447 -60.426085 
L 186.262433 -63.919781 
L 183.354332 -67.413477 
L 180.290509 -70.907174 
L 177.063725 -74.40087 
L 173.723701 -77.894566 
L 170.399285 -81.388262 
L 167.28923 -84.881958 
L 164.623944 -88.375654 
L 162.614552 -91.86935 
L 161.409416 -95.363047 
L 161.07189 -98.856743 
L 161.582539 -102.350439 
L 162.860277 -105.844135 
L 164.791614 -109.337831 
L 167.255011 -112.831527 
L 170.130168 -116.325224 
L 173.291623 -119.81892 
L 176.597669 -123.312616 
L 179.889037 -126.806312 
L 183.003359 -130.300008 
L 185.799639 -133.793704 
L 188.182655 -137.287401 
L 190.120313 -140.781097 
L 191.649511 -144.274793 
L 192.865513 -147.768489 
L 193.892602 -151.262185 
L 194.843366 -154.755881 
L 195.783629 -158.249578 
L 196.719544 -161.743274 
L 197.611667 -165.23697 
L 198.406791 -168.730666 
L 199.070998 -172.224362 
L 199.609097 -175.718058 
L 200.063161 -179.211754 
L 200.492505 -182.705451 
L 200.945667 -186.199147 
L 201.438446 -189.692843 
L 201.948457 -193.186539 
L 202.427587 -196.680235 
L 202.824603 -200.173931 
L 203.106371 -203.667628 
L 203.269039 -207.161324 
L 203.336933 -210.65502 
L 203.352111 -214.148716 
L 203.359731 -217.642412 
L 203.394439 -221.136108 
L 203.472085 -224.629805 
L 203.589137 -228.123501 
L 203.729047 -231.617197 
L 203.871973 -235.110893 
L 204.003397 -238.604589 
L 204.118549 -242.098285 
L 204.221682 -245.591982 
L 204.321174 -249.085678 
L 204.422937 -252.579374 
L 204.525483 -256.07307 
L 204.619406 -259.566766 
L 204.691743 -263.060462 
L 204.73289 -266.554158 
L 204.742299 -270.047855 
L 204.729955 -273.541551 
L 204.713014 -277.035247 
L 204.709508 -280.528943 
L 204.732154 -284.022639 
L 204.784873 -287.516335 
L 204.862937 -291.010032 
L 204.956073 -294.503728 
L 205.052822 -297.997424 
L 205.144277 -301.49112 
L 205.225784 -304.984816 
L 205.296313 -308.478512 
L 205.356462 -311.972209 
L 205.406704 -315.465905 
L 205.446906 -318.959601 
L 205.476947 -322.453297 
L 205.497491 -325.946993 
L 205.510185 -329.440689 
L 205.517219 -332.934386 
L 205.520696 -336.428082 
L 205.522202 -339.921778 
L 205.522684 -343.415474 
L 205.522496 -346.90917 
L 205.521429 -350.402866 
L 205.518598 -353.896562 
L 205.512238 -357.390259 
L 205.499649 -360.883955 
L 205.477682 -364.377651 
L 205.444119 -367.871347 
L 205.399721 -371.365043 
L 205.349935 -374.858739 
L 205.304722 -378.352436 
L 205.275637 -381.846132 
L 205.271118 -385.339828 
L 205.775211 -385.339828 
L 205.775211 -385.339828 
L 205.770692 -381.846132 
L 205.741608 -378.352436 
L 205.696394 -374.858739 
L 205.646609 -371.365043 
L 205.602211 -367.871347 
L 205.568647 -364.377651 
L 205.546681 -360.883955 
L 205.534091 -357.390259 
L 205.527731 -353.896562 
L 205.5249 -350.402866 
L 205.523833 -346.90917 
L 205.523646 -343.415474 
L 205.524127 -339.921778 
L 205.525633 -336.428082 
L 205.52911 -332.934386 
L 205.536144 -329.440689 
L 205.548838 -325.946993 
L 205.569382 -322.453297 
L 205.599423 -318.959601 
L 205.639625 -315.465905 
L 205.689867 -311.972209 
L 205.750016 -308.478512 
L 205.820545 -304.984816 
L 205.902053 -301.49112 
L 205.993507 -297.997424 
L 206.090256 -294.503728 
L 206.183392 -291.010032 
L 206.261456 -287.516335 
L 206.314175 -284.022639 
L 206.336821 -280.528943 
L 206.333315 -277.035247 
L 206.316374 -273.541551 
L 206.30403 -270.047855 
L 206.31344 -266.554158 
L 206.354586 -263.060462 
L 206.426923 -259.566766 
L 206.520847 -256.07307 
L 206.623393 -252.579374 
L 206.725155 -249.085678 
L 206.824647 -245.591982 
L 206.92778 -242.098285 
L 207.042932 -238.604589 
L 207.174356 -235.110893 
L 207.317282 -231.617197 
L 207.457193 -228.123501 
L 207.574244 -224.629805 
L 207.65189 -221.136108 
L 207.686598 -217.642412 
L 207.694218 -214.148716 
L 207.709396 -210.65502 
L 207.77729 -207.161324 
L 207.939958 -203.667628 
L 208.221726 -200.173931 
L 208.618742 -196.680235 
L 209.097872 -193.186539 
L 209.607883 -189.692843 
L 210.100663 -186.199147 
L 210.553824 -182.705451 
L 210.983168 -179.211754 
L 211.437233 -175.718058 
L 211.975331 -172.224362 
L 212.639539 -168.730666 
L 213.434662 -165.23697 
L 214.326785 -161.743274 
L 215.2627 -158.249578 
L 216.202964 -154.755881 
L 217.153727 -151.262185 
L 218.180816 -147.768489 
L 219.396818 -144.274793 
L 220.926016 -140.781097 
L 222.863674 -137.287401 
L 225.24669 -133.793704 
L 228.04297 -130.300008 
L 231.157292 -126.806312 
L 234.44866 -123.312616 
L 237.754706 -119.81892 
L 240.916161 -116.325224 
L 243.791318 -112.831527 
L 246.254715 -109.337831 
L 248.186052 -105.844135 
L 249.46379 -102.350439 
L 249.974439 -98.856743 
L 249.636913 -95.363047 
L 248.431777 -91.86935 
L 246.422385 -88.375654 
L 243.757099 -84.881958 
L 240.647044 -81.388262 
L 237.322628 -77.894566 
L 233.982604 -74.40087 
L 230.755821 -70.907174 
L 227.691997 -67.413477 
L 224.783896 -63.919781 
L 222.006882 -60.426085 
L 219.353746 -56.932389 
L 216.848438 -53.438693 
L 214.537403 -49.944997 
L 212.470376 -46.4513 
L 210.684676 -42.957604 
L 209.199267 -39.463908 
z
" style="stroke: #3d3d3d; stroke-width: 1.25"/>
    </defs>
    <g clip-path="url(#p00793c2304)">
     <use xlink:href="#m660e360e6e" x="0" y="424.8" style="fill: #e1812c; stroke: #3d3d3d; stroke-width: 1.25"/>
    </g>
   </g>
   <g id="FillBetweenPolyCollection_3">
    <defs>
     <path id="m8601aa58d2" d="M 319.980559 -39.463908 
L 313.322142 -39.463908 
L 312.131063 -42.957604 
L 310.723094 -46.4513 
L 309.103963 -49.944997 
L 307.289909 -53.438693 
L 305.310127 -56.932389 
L 303.203354 -60.426085 
L 301.006852 -63.919781 
L 298.741756 -67.413477 
L 296.402945 -70.907174 
L 293.961066 -74.40087 
L 291.378851 -77.894566 
L 288.636778 -81.388262 
L 285.75811 -84.881958 
L 282.82297 -88.375654 
L 279.96514 -91.86935 
L 277.351891 -95.363047 
L 275.153424 -98.856743 
L 273.51169 -102.350439 
L 272.517404 -105.844135 
L 272.200076 -109.337831 
L 272.53171 -112.831527 
L 273.442223 -116.325224 
L 274.842595 -119.81892 
L 276.648755 -123.312616 
L 278.796499 -126.806312 
L 281.23968 -130.300008 
L 283.93247 -133.793704 
L 286.806812 -137.287401 
L 289.760022 -140.781097 
L 292.661228 -144.274793 
L 295.37399 -147.768489 
L 297.784627 -151.262185 
L 299.825367 -154.755881 
L 301.485717 -158.249578 
L 302.810002 -161.743274 
L 303.881985 -165.23697 
L 304.800305 -168.730666 
L 305.651498 -172.224362 
L 306.489234 -175.718058 
L 307.32678 -179.211754 
L 308.144623 -182.705451 
L 308.908817 -186.199147 
L 309.591332 -189.692843 
L 310.183655 -193.186539 
L 310.698935 -196.680235 
L 311.163843 -200.173931 
L 311.605716 -203.667628 
L 312.041438 -207.161324 
L 312.47226 -210.65502 
L 312.885247 -214.148716 
L 313.259478 -217.642412 
L 313.574166 -221.136108 
L 313.816022 -224.629805 
L 313.983936 -228.123501 
L 314.089848 -231.617197 
L 314.155761 -235.110893 
L 314.207935 -238.604589 
L 314.270288 -242.098285 
L 314.359141 -245.591982 
L 314.480716 -249.085678 
L 314.631482 -252.579374 
L 314.800571 -256.07307 
L 314.973321 -259.566766 
L 315.135203 -263.060462 
L 315.275325 -266.554158 
L 315.38846 -270.047855 
L 315.474792 -273.541551 
L 315.537633 -277.035247 
L 315.580605 -280.528943 
L 315.606086 -284.022639 
L 315.615843 -287.516335 
L 315.613242 -291.010032 
L 315.605412 -294.503728 
L 315.60373 -297.997424 
L 315.621843 -301.49112 
L 315.671682 -304.984816 
L 315.759039 -308.478512 
L 315.880743 -311.972209 
L 316.024983 -315.465905 
L 316.174844 -318.959601 
L 316.313503 -322.453297 
L 316.428811 -325.946993 
L 316.515486 -329.440689 
L 316.574581 -332.934386 
L 316.611154 -336.428082 
L 316.631554 -339.921778 
L 316.641349 -343.415474 
L 316.644262 -346.90917 
L 316.641921 -350.402866 
L 316.634125 -353.896562 
L 316.619428 -357.390259 
L 316.596055 -360.883955 
L 316.563136 -364.377651 
L 316.522014 -367.871347 
L 316.477081 -371.365043 
L 316.435497 -374.858739 
L 316.405514 -378.352436 
L 316.393865 -381.846132 
L 316.40332 -385.339828 
L 316.89938 -385.339828 
L 316.89938 -385.339828 
L 316.908835 -381.846132 
L 316.897187 -378.352436 
L 316.867204 -374.858739 
L 316.82562 -371.365043 
L 316.780687 -367.871347 
L 316.739565 -364.377651 
L 316.706646 -360.883955 
L 316.683273 -357.390259 
L 316.668575 -353.896562 
L 316.660779 -350.402866 
L 316.658439 -346.90917 
L 316.661351 -343.415474 
L 316.671147 -339.921778 
L 316.691546 -336.428082 
L 316.72812 -332.934386 
L 316.787214 -329.440689 
L 316.87389 -325.946993 
L 316.989198 -322.453297 
L 317.127857 -318.959601 
L 317.277717 -315.465905 
L 317.421958 -311.972209 
L 317.543661 -308.478512 
L 317.631018 -304.984816 
L 317.680858 -301.49112 
L 317.698971 -297.997424 
L 317.697289 -294.503728 
L 317.689459 -291.010032 
L 317.686857 -287.516335 
L 317.696614 -284.022639 
L 317.722095 -280.528943 
L 317.765067 -277.035247 
L 317.827909 -273.541551 
L 317.91424 -270.047855 
L 318.027376 -266.554158 
L 318.167498 -263.060462 
L 318.32938 -259.566766 
L 318.50213 -256.07307 
L 318.671219 -252.579374 
L 318.821985 -249.085678 
L 318.94356 -245.591982 
L 319.032413 -242.098285 
L 319.094766 -238.604589 
L 319.14694 -235.110893 
L 319.212852 -231.617197 
L 319.318765 -228.123501 
L 319.486678 -224.629805 
L 319.728535 -221.136108 
L 320.043222 -217.642412 
L 320.417454 -214.148716 
L 320.83044 -210.65502 
L 321.261263 -207.161324 
L 321.696985 -203.667628 
L 322.138857 -200.173931 
L 322.603766 -196.680235 
L 323.119045 -193.186539 
L 323.711368 -189.692843 
L 324.393884 -186.199147 
L 325.158077 -182.705451 
L 325.975921 -179.211754 
L 326.813467 -175.718058 
L 327.651202 -172.224362 
L 328.502395 -168.730666 
L 329.420715 -165.23697 
L 330.492699 -161.743274 
L 331.816983 -158.249578 
L 333.477334 -154.755881 
L 335.518073 -151.262185 
L 337.928711 -147.768489 
L 340.641472 -144.274793 
L 343.542678 -140.781097 
L 346.495889 -137.287401 
L 349.37023 -133.793704 
L 352.06302 -130.300008 
L 354.506201 -126.806312 
L 356.653945 -123.312616 
L 358.460106 -119.81892 
L 359.860478 -116.325224 
L 360.77099 -112.831527 
L 361.102625 -109.337831 
L 360.785296 -105.844135 
L 359.791011 -102.350439 
L 358.149277 -98.856743 
L 355.950809 -95.363047 
L 353.337561 -91.86935 
L 350.47973 -88.375654 
L 347.544591 -84.881958 
L 344.665923 -81.388262 
L 341.923849 -77.894566 
L 339.341635 -74.40087 
L 336.899756 -70.907174 
L 334.560945 -67.413477 
L 332.295848 -63.919781 
L 330.099347 -60.426085 
L 327.992573 -56.932389 
L 326.012792 -53.438693 
L 324.198738 -49.944997 
L 322.579606 -46.4513 
L 321.171638 -42.957604 
L 319.980559 -39.463908 
z
" style="stroke: #3d3d3d; stroke-width: 1.25"/>
    </defs>
    <g clip-path="url(#p00793c2304)">
     <use xlink:href="#m8601aa58d2" x="0" y="424.8" style="fill: #3a923a; stroke: #3d3d3d; stroke-width: 1.25"/>
    </g>
   </g>
   <g id="FillBetweenPolyCollection_4">
    <defs>
     <path id="m6d40bd51a4" d="M 430.978464 -39.463908 
L 424.580608 -39.463908 
L 423.487374 -42.957604 
L 422.204017 -46.4513 
L 420.732947 -49.944997 
L 419.084025 -53.438693 
L 417.278492 -56.932389 
L 415.348876 -60.426085 
L 413.332009 -63.919781 
L 411.256594 -67.413477 
L 409.130959 -70.907174 
L 406.937905 -74.40087 
L 404.640974 -77.894566 
L 402.201512 -81.388262 
L 399.601213 -84.881958 
L 396.862338 -88.375654 
L 394.058234 -91.86935 
L 391.309857 -95.363047 
L 388.76858 -98.856743 
L 386.590139 -102.350439 
L 384.907315 -105.844135 
L 383.808716 -109.337831 
L 383.328262 -112.831527 
L 383.446608 -116.325224 
L 384.10338 -119.81892 
L 385.217487 -123.312616 
L 386.710458 -126.806312 
L 388.524733 -130.300008 
L 390.628294 -133.793704 
L 393.001999 -137.287401 
L 395.615415 -140.781097 
L 398.404625 -144.274793 
L 401.265176 -147.768489 
L 404.064851 -151.262185 
L 406.670312 -154.755881 
L 408.975854 -158.249578 
L 410.923874 -161.743274 
L 412.512 -165.23697 
L 413.786981 -168.730666 
L 414.828349 -172.224362 
L 415.726278 -175.718058 
L 416.559134 -179.211754 
L 417.376762 -182.705451 
L 418.194326 -186.199147 
L 418.998071 -189.692843 
L 419.759787 -193.186539 
L 420.453381 -196.680235 
L 421.066673 -200.173931 
L 421.604603 -203.667628 
L 422.084478 -207.161324 
L 422.527199 -210.65502 
L 422.949018 -214.148716 
L 423.356649 -217.642412 
L 423.746371 -221.136108 
L 424.106423 -224.629805 
L 424.421653 -228.123501 
L 424.679267 -231.617197 
L 424.874132 -235.110893 
L 425.011806 -238.604589 
L 425.107971 -242.098285 
L 425.184389 -245.591982 
L 425.263066 -249.085678 
L 425.360952 -252.579374 
L 425.48679 -256.07307 
L 425.640436 -259.566766 
L 425.814015 -263.060462 
L 425.994303 -266.554158 
L 426.165981 -270.047855 
L 426.315357 -273.541551 
L 426.433574 -277.035247 
L 426.518111 -280.528943 
L 426.571957 -284.022639 
L 426.601158 -287.516335 
L 426.612338 -291.010032 
L 426.611709 -294.503728 
L 426.605895 -297.997424 
L 426.603545 -301.49112 
L 426.615979 -304.984816 
L 426.655544 -308.478512 
L 426.731799 -311.972209 
L 426.847204 -315.465905 
L 426.994752 -318.959601 
L 427.159207 -322.453297 
L 427.321648 -325.946993 
L 427.465209 -329.440689 
L 427.579383 -332.934386 
L 427.661287 -336.428082 
L 427.714074 -339.921778 
L 427.743864 -343.415474 
L 427.756826 -346.90917 
L 427.757384 -350.402866 
L 427.74777 -353.896562 
L 427.728651 -357.390259 
L 427.700342 -360.883955 
L 427.664146 -364.377651 
L 427.623286 -367.871347 
L 427.583047 -371.365043 
L 427.549937 -374.858739 
L 427.530083 -378.352436 
L 427.527442 -381.846132 
L 427.542555 -385.339828 
L 428.016517 -385.339828 
L 428.016517 -385.339828 
L 428.03163 -381.846132 
L 428.028989 -378.352436 
L 428.009135 -374.858739 
L 427.976025 -371.365043 
L 427.935786 -367.871347 
L 427.894926 -364.377651 
L 427.858729 -360.883955 
L 427.830421 -357.390259 
L 427.811301 -353.896562 
L 427.801688 -350.402866 
L 427.802246 -346.90917 
L 427.815208 -343.415474 
L 427.844998 -339.921778 
L 427.897785 -336.428082 
L 427.979689 -332.934386 
L 428.093862 -329.440689 
L 428.237424 -325.946993 
L 428.399865 -322.453297 
L 428.56432 -318.959601 
L 428.711868 -315.465905 
L 428.827272 -311.972209 
L 428.903528 -308.478512 
L 428.943093 -304.984816 
L 428.955526 -301.49112 
L 428.953177 -297.997424 
L 428.947363 -294.503728 
L 428.946734 -291.010032 
L 428.957914 -287.516335 
L 428.987114 -284.022639 
L 429.040961 -280.528943 
L 429.125498 -277.035247 
L 429.243715 -273.541551 
L 429.39309 -270.047855 
L 429.564769 -266.554158 
L 429.745057 -263.060462 
L 429.918636 -259.566766 
L 430.072282 -256.07307 
L 430.19812 -252.579374 
L 430.296006 -249.085678 
L 430.374683 -245.591982 
L 430.451101 -242.098285 
L 430.547265 -238.604589 
L 430.684939 -235.110893 
L 430.879804 -231.617197 
L 431.137419 -228.123501 
L 431.452649 -224.629805 
L 431.812701 -221.136108 
L 432.202423 -217.642412 
L 432.610054 -214.148716 
L 433.031873 -210.65502 
L 433.474594 -207.161324 
L 433.954469 -203.667628 
L 434.492399 -200.173931 
L 435.105691 -196.680235 
L 435.799285 -193.186539 
L 436.561001 -189.692843 
L 437.364746 -186.199147 
L 438.18231 -182.705451 
L 438.999938 -179.211754 
L 439.832794 -175.718058 
L 440.730722 -172.224362 
L 441.772091 -168.730666 
L 443.047072 -165.23697 
L 444.635198 -161.743274 
L 446.583218 -158.249578 
L 448.88876 -154.755881 
L 451.49422 -151.262185 
L 454.293896 -147.768489 
L 457.154447 -144.274793 
L 459.943657 -140.781097 
L 462.557073 -137.287401 
L 464.930778 -133.793704 
L 467.034339 -130.300008 
L 468.848613 -126.806312 
L 470.341584 -123.312616 
L 471.455692 -119.81892 
L 472.112464 -116.325224 
L 472.23081 -112.831527 
L 471.750356 -109.337831 
L 470.651757 -105.844135 
L 468.968933 -102.350439 
L 466.790492 -98.856743 
L 464.249215 -95.363047 
L 461.500838 -91.86935 
L 458.696734 -88.375654 
L 455.957859 -84.881958 
L 453.35756 -81.388262 
L 450.918098 -77.894566 
L 448.621167 -74.40087 
L 446.428113 -70.907174 
L 444.302478 -67.413477 
L 442.227063 -63.919781 
L 440.210196 -60.426085 
L 438.280579 -56.932389 
L 436.475047 -53.438693 
L 434.826125 -49.944997 
L 433.355055 -46.4513 
L 432.071698 -42.957604 
L 430.978464 -39.463908 
z
" style="stroke: #3d3d3d; stroke-width: 1.25"/>
    </defs>
    <g clip-path="url(#p00793c2304)">
     <use xlink:href="#m6d40bd51a4" x="0" y="424.8" style="fill: #c03d3e; stroke: #3d3d3d; stroke-width: 1.25"/>
    </g>
   </g>
   <g id="FillBetweenPolyCollection_5">
    <defs>
     <path id="md500ca6bf9" d="M 542.560052 -39.463908 
L 535.255391 -39.463908 
L 533.794114 -42.957604 
L 532.039723 -46.4513 
L 530.009946 -49.944997 
L 527.740286 -53.438693 
L 525.278958 -56.932389 
L 522.672268 -60.426085 
L 519.945725 -63.919781 
L 517.094054 -67.413477 
L 514.092055 -70.907174 
L 510.926581 -74.40087 
L 507.635359 -77.894566 
L 504.331719 -81.388262 
L 501.200372 -84.881958 
L 498.464189 -88.375654 
L 496.335905 -91.86935 
L 494.973888 -95.363047 
L 494.456447 -98.856743 
L 494.779542 -102.350439 
L 495.874101 -105.844135 
L 497.633766 -109.337831 
L 499.941008 -112.831527 
L 502.680483 -116.325224 
L 505.735815 -119.81892 
L 508.977599 -123.312616 
L 512.257092 -126.806312 
L 515.415094 -130.300008 
L 518.303741 -133.793704 
L 520.811702 -137.287401 
L 522.884424 -140.781097 
L 524.534448 -144.274793 
L 525.837141 -147.768489 
L 526.908235 -151.262185 
L 527.866766 -154.755881 
L 528.797121 -158.249578 
L 529.727427 -161.743274 
L 530.633705 -165.23697 
L 531.465613 -168.730666 
L 532.179686 -172.224362 
L 532.764442 -175.718058 
L 533.247176 -179.211754 
L 533.681063 -182.705451 
L 534.11996 -186.199147 
L 534.593674 -189.692843 
L 535.095644 -193.186539 
L 535.588104 -196.680235 
L 536.020649 -200.173931 
L 536.352117 -203.667628 
L 536.565952 -207.161324 
L 536.674188 -210.65502 
L 536.710999 -214.148716 
L 536.720073 -217.642412 
L 536.740834 -221.136108 
L 536.797949 -224.629805 
L 536.89717 -228.123501 
L 537.02826 -231.617197 
L 537.172873 -235.110893 
L 537.313525 -238.604589 
L 537.440053 -242.098285 
L 537.551604 -245.591982 
L 537.654084 -249.085678 
L 537.754604 -252.579374 
L 537.855689 -256.07307 
L 537.952345 -259.566766 
L 538.033741 -263.060462 
L 538.088728 -266.554158 
L 538.112196 -270.047855 
L 538.108819 -273.541551 
L 538.092266 -277.035247 
L 538.080422 -280.528943 
L 538.089059 -284.022639 
L 538.126833 -287.516335 
L 538.193473 -291.010032 
L 538.281379 -294.503728 
L 538.379443 -297.997424 
L 538.477198 -301.49112 
L 538.567542 -304.984816 
L 538.647207 -308.478512 
L 538.715457 -311.972209 
L 538.772369 -315.465905 
L 538.817947 -318.959601 
L 538.852293 -322.453297 
L 538.876185 -325.946993 
L 538.891314 -329.440689 
L 538.899957 -332.934386 
L 538.904384 -336.428082 
L 538.906389 -339.921778 
L 538.907106 -343.415474 
L 538.907034 -346.90917 
L 538.90606 -350.402866 
L 538.903379 -353.896562 
L 538.897311 -357.390259 
L 538.88523 -360.883955 
L 538.864009 -364.377651 
L 538.831306 -367.871347 
L 538.787572 -371.365043 
L 538.737805 -374.858739 
L 538.69159 -378.352436 
L 538.660449 -381.846132 
L 538.653271 -385.339828 
L 539.162172 -385.339828 
L 539.162172 -385.339828 
L 539.154994 -381.846132 
L 539.123854 -378.352436 
L 539.077638 -374.858739 
L 539.027871 -371.365043 
L 538.984137 -367.871347 
L 538.951434 -364.377651 
L 538.930213 -360.883955 
L 538.918132 -357.390259 
L 538.912064 -353.896562 
L 538.909383 -350.402866 
L 538.908409 -346.90917 
L 538.908337 -343.415474 
L 538.909054 -339.921778 
L 538.911059 -336.428082 
L 538.915486 -332.934386 
L 538.924129 -329.440689 
L 538.939258 -325.946993 
L 538.96315 -322.453297 
L 538.997496 -318.959601 
L 539.043075 -315.465905 
L 539.099986 -311.972209 
L 539.168236 -308.478512 
L 539.247901 -304.984816 
L 539.338245 -301.49112 
L 539.436 -297.997424 
L 539.534064 -294.503728 
L 539.62197 -291.010032 
L 539.68861 -287.516335 
L 539.726384 -284.022639 
L 539.735021 -280.528943 
L 539.723177 -277.035247 
L 539.706624 -273.541551 
L 539.703247 -270.047855 
L 539.726715 -266.554158 
L 539.781702 -263.060462 
L 539.863098 -259.566766 
L 539.959754 -256.07307 
L 540.060839 -252.579374 
L 540.161359 -249.085678 
L 540.263839 -245.591982 
L 540.37539 -242.098285 
L 540.501918 -238.604589 
L 540.64257 -235.110893 
L 540.787183 -231.617197 
L 540.918273 -228.123501 
L 541.017494 -224.629805 
L 541.074609 -221.136108 
L 541.09537 -217.642412 
L 541.104444 -214.148716 
L 541.141255 -210.65502 
L 541.249491 -207.161324 
L 541.463326 -203.667628 
L 541.794794 -200.173931 
L 542.227339 -196.680235 
L 542.719799 -193.186539 
L 543.221769 -189.692843 
L 543.695483 -186.199147 
L 544.134381 -182.705451 
L 544.568267 -179.211754 
L 545.051001 -175.718058 
L 545.635757 -172.224362 
L 546.34983 -168.730666 
L 547.181739 -165.23697 
L 548.088016 -161.743274 
L 549.018322 -158.249578 
L 549.948677 -154.755881 
L 550.907208 -151.262185 
L 551.978302 -147.768489 
L 553.280995 -144.274793 
L 554.931019 -140.781097 
L 557.003741 -137.287401 
L 559.511702 -133.793704 
L 562.400349 -130.300008 
L 565.558351 -126.806312 
L 568.837844 -123.312616 
L 572.079628 -119.81892 
L 575.13496 -116.325224 
L 577.874435 -112.831527 
L 580.181677 -109.337831 
L 581.941342 -105.844135 
L 583.035901 -102.350439 
L 583.358996 -98.856743 
L 582.841555 -95.363047 
L 581.479538 -91.86935 
L 579.351254 -88.375654 
L 576.615071 -84.881958 
L 573.483724 -81.388262 
L 570.180084 -77.894566 
L 566.888862 -74.40087 
L 563.723388 -70.907174 
L 560.72139 -67.413477 
L 557.869718 -63.919781 
L 555.143175 -60.426085 
L 552.536485 -56.932389 
L 550.075157 -53.438693 
L 547.805497 -49.944997 
L 545.77572 -46.4513 
L 544.02133 -42.957604 
L 542.560052 -39.463908 
z
" style="stroke: #3d3d3d; stroke-width: 1.25"/>
    </defs>
    <g clip-path="url(#p00793c2304)">
     <use xlink:href="#md500ca6bf9" x="0" y="424.8" style="fill: #9372b2; stroke: #3d3d3d; stroke-width: 1.25"/>
    </g>
   </g>
   <g id="FillBetweenPolyCollection_6">
    <defs>
     <path id="m61dc5630ea" d="M 653.443913 -39.463908 
L 646.627901 -39.463908 
L 645.376448 -42.957604 
L 643.891515 -46.4513 
L 642.181163 -49.944997 
L 640.26574 -53.438693 
L 638.179079 -56.932389 
L 635.962791 -60.426085 
L 633.652939 -63.919781 
L 631.264894 -67.413477 
L 628.785951 -70.907174 
L 626.183065 -74.40087 
L 623.42554 -77.894566 
L 620.514321 -81.388262 
L 617.505277 -84.881958 
L 614.515842 -88.375654 
L 611.711217 -91.86935 
L 609.274683 -95.363047 
L 607.37236 -98.856743 
L 606.123617 -102.350439 
L 605.584633 -105.844135 
L 605.747329 -109.337831 
L 606.552003 -112.831527 
L 607.909594 -116.325224 
L 609.726754 -119.81892 
L 611.924042 -123.312616 
L 614.438511 -126.806312 
L 617.209766 -130.300008 
L 620.159354 -133.793704 
L 623.178444 -137.287401 
L 626.133256 -140.781097 
L 628.886412 -144.274793 
L 631.324321 -147.768489 
L 633.380141 -151.262185 
L 635.045755 -154.755881 
L 636.369873 -158.249578 
L 637.442055 -161.743274 
L 638.36601 -165.23697 
L 639.230039 -168.730666 
L 640.085017 -172.224362 
L 640.937982 -175.718058 
L 641.762745 -179.211754 
L 642.521501 -182.705451 
L 643.187114 -186.199147 
L 643.756526 -189.692843 
L 644.250745 -193.186539 
L 644.703542 -196.680235 
L 645.145667 -200.173931 
L 645.592294 -203.667628 
L 646.038506 -207.161324 
L 646.463291 -210.65502 
L 646.839092 -214.148716 
L 647.142505 -217.642412 
L 647.362379 -221.136108 
L 647.50321 -224.629805 
L 647.58358 -228.123501 
L 647.630768 -231.617197 
L 647.673477 -235.110893 
L 647.734913 -238.604589 
L 647.8282 -242.098285 
L 647.955148 -245.591982 
L 648.108108 -249.085678 
L 648.273757 -252.579374 
L 648.437467 -256.07307 
L 648.587186 -259.566766 
L 648.715908 -263.060462 
L 648.822003 -266.554158 
L 648.907346 -270.047855 
L 648.974358 -273.541551 
L 649.023819 -277.035247 
L 649.0549 -280.528943 
L 649.067358 -284.022639 
L 649.064412 -287.516335 
L 649.054385 -291.010032 
L 649.04996 -294.503728 
L 649.065132 -297.997424 
L 649.111004 -301.49112 
L 649.192085 -304.984816 
L 649.304578 -308.478512 
L 649.437393 -311.972209 
L 649.575492 -315.465905 
L 649.704187 -318.959601 
L 649.812735 -322.453297 
L 649.896074 -325.946993 
L 649.954501 -329.440689 
L 649.991959 -332.934386 
L 650.0139 -336.428082 
L 650.025535 -339.921778 
L 650.030822 -343.415474 
L 650.032105 -346.90917 
L 650.030128 -350.402866 
L 650.024212 -353.896562 
L 650.01255 -357.390259 
L 649.992787 -360.883955 
L 649.963079 -364.377651 
L 649.923525 -367.871347 
L 649.877481 -371.365043 
L 649.831857 -374.858739 
L 649.795767 -378.352436 
L 649.777658 -381.846132 
L 649.782119 -385.339828 
L 650.289695 -385.339828 
L 650.289695 -385.339828 
L 650.294156 -381.846132 
L 650.276048 -378.352436 
L 650.239958 -374.858739 
L 650.194334 -371.365043 
L 650.148289 -367.871347 
L 650.108736 -364.377651 
L 650.079027 -360.883955 
L 650.059265 -357.390259 
L 650.047602 -353.896562 
L 650.041687 -350.402866 
L 650.03971 -346.90917 
L 650.040992 -343.415474 
L 650.046279 -339.921778 
L 650.057914 -336.428082 
L 650.079855 -332.934386 
L 650.117313 -329.440689 
L 650.175741 -325.946993 
L 650.259079 -322.453297 
L 650.367628 -318.959601 
L 650.496322 -315.465905 
L 650.634421 -311.972209 
L 650.767236 -308.478512 
L 650.879729 -304.984816 
L 650.96081 -301.49112 
L 651.006682 -297.997424 
L 651.021854 -294.503728 
L 651.01743 -291.010032 
L 651.007403 -287.516335 
L 651.004456 -284.022639 
L 651.016914 -280.528943 
L 651.047995 -277.035247 
L 651.097457 -273.541551 
L 651.164469 -270.047855 
L 651.249811 -266.554158 
L 651.355906 -263.060462 
L 651.484628 -259.566766 
L 651.634347 -256.07307 
L 651.798057 -252.579374 
L 651.963706 -249.085678 
L 652.116666 -245.591982 
L 652.243614 -242.098285 
L 652.336902 -238.604589 
L 652.398337 -235.110893 
L 652.441046 -231.617197 
L 652.488234 -228.123501 
L 652.568604 -224.629805 
L 652.709436 -221.136108 
L 652.92931 -217.642412 
L 653.232722 -214.148716 
L 653.608523 -210.65502 
L 654.033309 -207.161324 
L 654.47952 -203.667628 
L 654.926148 -200.173931 
L 655.368273 -196.680235 
L 655.821069 -193.186539 
L 656.315289 -189.692843 
L 656.8847 -186.199147 
L 657.550314 -182.705451 
L 658.309069 -179.211754 
L 659.133832 -175.718058 
L 659.986797 -172.224362 
L 660.841775 -168.730666 
L 661.705804 -165.23697 
L 662.629759 -161.743274 
L 663.701942 -158.249578 
L 665.02606 -154.755881 
L 666.691674 -151.262185 
L 668.747493 -147.768489 
L 671.185402 -144.274793 
L 673.938558 -140.781097 
L 676.89337 -137.287401 
L 679.91246 -133.793704 
L 682.862049 -130.300008 
L 685.633303 -126.806312 
L 688.147773 -123.312616 
L 690.34506 -119.81892 
L 692.162221 -116.325224 
L 693.519812 -112.831527 
L 694.324486 -109.337831 
L 694.487181 -105.844135 
L 693.948197 -102.350439 
L 692.699454 -98.856743 
L 690.797131 -95.363047 
L 688.360598 -91.86935 
L 685.555973 -88.375654 
L 682.566537 -84.881958 
L 679.557493 -81.388262 
L 676.646274 -77.894566 
L 673.888749 -74.40087 
L 671.285863 -70.907174 
L 668.80692 -67.413477 
L 666.418875 -63.919781 
L 664.109023 -60.426085 
L 661.892735 -56.932389 
L 659.806075 -53.438693 
L 657.890652 -49.944997 
L 656.180299 -46.4513 
L 654.695367 -42.957604 
L 653.443913 -39.463908 
z
" style="stroke: #3d3d3d; stroke-width: 1.25"/>
    </defs>
    <g clip-path="url(#p00793c2304)">
     <use xlink:href="#m61dc5630ea" x="0" y="424.8" style="fill: #845b53; stroke: #3d3d3d; stroke-width: 1.25"/>
    </g>
   </g>
   <g id="matplotlib.axis_1">
    <g id="xtick_1">
     <g id="line2d_1">
      <defs>
       <path id="m6cdb91dae2" d="M 0 0 
L 0 3.5 
" style="stroke: #000000; stroke-width: 0.8"/>
      </defs>
      <g>
       <use xlink:href="#m6cdb91dae2" x="94.394979" y="402.629888" style="stroke: #000000; stroke-width: 0.8"/>
      </g>
     </g>
     <g id="text_1">
      <!-- $\alpha_{0}$ -->
      <g transform="translate(89.615554 415.856538) scale(0.09 -0.09)">
       <defs>
        <path id="CMMI12-b" d="M 2963 1616 
C 2963 2235 2611 2815 1933 2815 
C 1094 2815 256 1902 256 996 
C 256 441 602 -64 1254 -64 
C 1651 -64 2125 89 2579 472 
C 2669 115 2867 -64 3142 -64 
C 3488 -64 3661 294 3661 377 
C 3661 434 3616 434 3597 434 
C 3546 434 3539 415 3520 364 
C 3462 204 3315 64 3162 64 
C 2963 64 2963 472 2963 862 
C 3616 1641 3770 2446 3770 2452 
C 3770 2510 3718 2510 3699 2510 
C 3642 2510 3635 2491 3610 2376 
C 3526 2095 3360 1597 2963 1073 
L 2963 1616 
z
M 2560 626 
C 1997 121 1491 64 1267 64 
C 813 64 685 466 685 766 
C 685 1040 826 1692 1024 2044 
C 1286 2491 1645 2688 1933 2688 
C 2554 2688 2554 1877 2554 1341 
C 2554 1182 2547 1016 2547 856 
C 2547 728 2554 696 2560 626 
z
" transform="scale(0.015625)"/>
        <path id="CMR17-30" d="M 2688 2025 
C 2688 2416 2682 3080 2413 3591 
C 2176 4039 1798 4198 1466 4198 
C 1158 4198 768 4058 525 3597 
C 269 3118 243 2524 243 2025 
C 243 1661 250 1106 448 619 
C 723 -39 1216 -128 1466 -128 
C 1760 -128 2208 -7 2470 600 
C 2662 1042 2688 1559 2688 2025 
z
M 1466 -26 
C 1056 -26 813 325 723 812 
C 653 1188 653 1738 653 2096 
C 653 2588 653 2997 736 3387 
C 858 3929 1216 4096 1466 4096 
C 1728 4096 2067 3923 2189 3400 
C 2272 3036 2278 2607 2278 2096 
C 2278 1680 2278 1169 2202 792 
C 2067 95 1690 -26 1466 -26 
z
" transform="scale(0.015625)"/>
       </defs>
       <use xlink:href="#CMMI12-b" transform="scale(0.996264)"/>
       <use xlink:href="#CMR17-30" transform="translate(62.046728 -14.943915) scale(0.697382)"/>
      </g>
     </g>
    </g>
    <g id="xtick_2">
     <g id="line2d_2">
      <g>
       <use xlink:href="#m6cdb91dae2" x="205.523165" y="402.629888" style="stroke: #000000; stroke-width: 0.8"/>
      </g>
     </g>
     <g id="text_2">
      <!-- $\beta_{0}$ -->
      <g transform="translate(201.100031 415.856538) scale(0.09 -0.09)">
       <defs>
        <path id="CMMI12-c" d="M 3622 3701 
C 3622 4081 3296 4480 2714 4480 
C 1888 4480 1363 3477 1197 2816 
L 186 -1172 
C 173 -1223 211 -1236 243 -1236 
C 288 -1236 320 -1230 326 -1198 
L 774 586 
C 838 229 1190 -64 1568 -64 
C 2483 -64 3347 650 3347 1599 
C 3347 1841 3290 2083 3155 2287 
C 3078 2408 2982 2497 2880 2574 
C 3341 2815 3622 3200 3622 3701 
z
M 2509 2580 
C 2406 2542 2304 2529 2182 2529 
C 2093 2529 2010 2523 1894 2561 
C 1958 2606 2054 2618 2189 2618 
C 2304 2618 2419 2606 2509 2580 
z
M 3290 3758 
C 3290 3410 3117 2903 2701 2669 
C 2579 2718 2413 2752 2272 2752 
C 2138 2752 1754 2752 1754 2555 
C 1754 2389 2106 2389 2214 2389 
C 2381 2389 2528 2432 2682 2484 
C 2886 2318 2976 2101 2976 1783 
C 2976 1413 2874 1115 2752 841 
C 2541 369 2042 64 1600 64 
C 1133 64 890 432 890 864 
C 890 922 890 1005 915 1099 
L 1331 2771 
C 1542 3603 2080 4353 2701 4353 
C 3162 4353 3290 4036 3290 3758 
z
" transform="scale(0.015625)"/>
       </defs>
       <use xlink:href="#CMMI12-c" transform="scale(0.996264)"/>
       <use xlink:href="#CMR17-30" transform="translate(55.070737 -14.943915) scale(0.697382)"/>
      </g>
     </g>
    </g>
    <g id="xtick_3">
     <g id="line2d_3">
      <g>
       <use xlink:href="#m6cdb91dae2" x="316.65135" y="402.629888" style="stroke: #000000; stroke-width: 0.8"/>
      </g>
     </g>
     <g id="text_3">
      <!-- $\alpha_{1}$ -->
      <g transform="translate(311.871925 415.856538) scale(0.09 -0.09)">
       <defs>
        <path id="CMR17-31" d="M 1702 4058 
C 1702 4192 1696 4192 1606 4192 
C 1357 3916 979 3827 621 3827 
C 602 3827 570 3827 563 3808 
C 557 3795 557 3782 557 3648 
C 755 3648 1088 3686 1344 3839 
L 1344 461 
C 1344 236 1331 160 781 160 
L 589 160 
L 589 0 
C 896 0 1216 0 1523 0 
C 1830 0 2150 0 2458 0 
L 2458 160 
L 2266 160 
C 1715 160 1702 230 1702 458 
L 1702 4058 
z
" transform="scale(0.015625)"/>
       </defs>
       <use xlink:href="#CMMI12-b" transform="scale(0.996264)"/>
       <use xlink:href="#CMR17-31" transform="translate(62.046728 -14.943915) scale(0.697382)"/>
      </g>
     </g>
    </g>
    <g id="xtick_4">
     <g id="line2d_4">
      <g>
       <use xlink:href="#m6cdb91dae2" x="427.779536" y="402.629888" style="stroke: #000000; stroke-width: 0.8"/>
      </g>
     </g>
     <g id="text_4">
      <!-- $\beta_{1}$ -->
      <g transform="translate(423.356402 415.856538) scale(0.09 -0.09)">
       <use xlink:href="#CMMI12-c" transform="scale(0.996264)"/>
       <use xlink:href="#CMR17-31" transform="translate(55.070737 -14.943915) scale(0.697382)"/>
      </g>
     </g>
    </g>
    <g id="xtick_5">
     <g id="line2d_5">
      <g>
       <use xlink:href="#m6cdb91dae2" x="538.907722" y="402.629888" style="stroke: #000000; stroke-width: 0.8"/>
      </g>
     </g>
     <g id="text_5">
      <!-- $\alpha_{2}$ -->
      <g transform="translate(534.128296 415.856538) scale(0.09 -0.09)">
       <defs>
        <path id="CMR17-32" d="M 2669 989 
L 2554 989 
C 2490 536 2438 459 2413 420 
C 2381 369 1920 369 1830 369 
L 602 369 
C 832 619 1280 1072 1824 1597 
C 2214 1967 2669 2402 2669 3035 
C 2669 3790 2067 4224 1395 4224 
C 691 4224 262 3604 262 3030 
C 262 2780 448 2748 525 2748 
C 589 2748 781 2787 781 3010 
C 781 3207 614 3264 525 3264 
C 486 3264 448 3258 422 3245 
C 544 3790 915 4058 1306 4058 
C 1862 4058 2227 3617 2227 3035 
C 2227 2479 1901 2000 1536 1584 
L 262 146 
L 262 0 
L 2515 0 
L 2669 989 
z
" transform="scale(0.015625)"/>
       </defs>
       <use xlink:href="#CMMI12-b" transform="scale(0.996264)"/>
       <use xlink:href="#CMR17-32" transform="translate(62.046728 -14.943915) scale(0.697382)"/>
      </g>
     </g>
    </g>
    <g id="xtick_6">
     <g id="line2d_6">
      <g>
       <use xlink:href="#m6cdb91dae2" x="650.035907" y="402.629888" style="stroke: #000000; stroke-width: 0.8"/>
      </g>
     </g>
     <g id="text_6">
      <!-- $\beta_{2}$ -->
      <g transform="translate(645.612774 415.856538) scale(0.09 -0.09)">
       <use xlink:href="#CMMI12-c" transform="scale(0.996264)"/>
       <use xlink:href="#CMR17-32" transform="translate(55.070737 -14.943915) scale(0.697382)"/>
      </g>
     </g>
    </g>
   </g>
   <g id="matplotlib.axis_2">
    <g id="ytick_1">
     <g id="line2d_7">
      <defs>
       <path id="mbfc364a550" d="M 0 0 
L -3.5 0 
" style="stroke: #000000; stroke-width: 0.8"/>
      </defs>
      <g>
       <use xlink:href="#mbfc364a550" x="38.830886" y="385.336092" style="stroke: #000000; stroke-width: 0.8"/>
      </g>
     </g>
     <g id="text_7">
      <!-- $\mathdefault{0.0}$ -->
      <g transform="translate(20.055677 388.449417) scale(0.09 -0.09)">
       <defs>
        <path id="CMMI12-3a" d="M 1178 307 
C 1178 492 1024 619 870 619 
C 685 619 557 466 557 313 
C 557 128 710 0 864 0 
C 1050 0 1178 153 1178 307 
z
" transform="scale(0.015625)"/>
       </defs>
       <use xlink:href="#CMR17-30" transform="scale(0.996264)"/>
       <use xlink:href="#CMMI12-3a" transform="translate(45.690477 0) scale(0.996264)"/>
       <use xlink:href="#CMR17-30" transform="translate(72.787654 0) scale(0.996264)"/>
      </g>
     </g>
    </g>
    <g id="ytick_2">
     <g id="line2d_8">
      <g>
       <use xlink:href="#mbfc364a550" x="38.830886" y="316.160908" style="stroke: #000000; stroke-width: 0.8"/>
      </g>
     </g>
     <g id="text_8">
      <!-- $\mathdefault{0.2}$ -->
      <g transform="translate(20.055677 319.274233) scale(0.09 -0.09)">
       <use xlink:href="#CMR17-30" transform="scale(0.996264)"/>
       <use xlink:href="#CMMI12-3a" transform="translate(45.690477 0) scale(0.996264)"/>
       <use xlink:href="#CMR17-32" transform="translate(72.787654 0) scale(0.996264)"/>
      </g>
     </g>
    </g>
    <g id="ytick_3">
     <g id="line2d_9">
      <g>
       <use xlink:href="#mbfc364a550" x="38.830886" y="246.985724" style="stroke: #000000; stroke-width: 0.8"/>
      </g>
     </g>
     <g id="text_9">
      <!-- $\mathdefault{0.4}$ -->
      <g transform="translate(20.055677 250.099049) scale(0.09 -0.09)">
       <defs>
        <path id="CMR17-34" d="M 2150 4122 
C 2150 4256 2144 4256 2029 4256 
L 128 1254 
L 128 1088 
L 1779 1088 
L 1779 457 
C 1779 224 1766 160 1318 160 
L 1197 160 
L 1197 0 
C 1402 0 1747 0 1965 0 
C 2182 0 2528 0 2733 0 
L 2733 160 
L 2611 160 
C 2163 160 2150 224 2150 457 
L 2150 1088 
L 2803 1088 
L 2803 1254 
L 2150 1254 
L 2150 4122 
z
M 1798 3703 
L 1798 1254 
L 256 1254 
L 1798 3703 
z
" transform="scale(0.015625)"/>
       </defs>
       <use xlink:href="#CMR17-30" transform="scale(0.996264)"/>
       <use xlink:href="#CMMI12-3a" transform="translate(45.690477 0) scale(0.996264)"/>
       <use xlink:href="#CMR17-34" transform="translate(72.787654 0) scale(0.996264)"/>
      </g>
     </g>
    </g>
    <g id="ytick_4">
     <g id="line2d_10">
      <g>
       <use xlink:href="#mbfc364a550" x="38.830886" y="177.81054" style="stroke: #000000; stroke-width: 0.8"/>
      </g>
     </g>
     <g id="text_10">
      <!-- $\mathdefault{0.6}$ -->
      <g transform="translate(20.055677 180.923865) scale(0.09 -0.09)">
       <defs>
        <path id="CMR17-36" d="M 678 2176 
C 678 3690 1395 4032 1811 4032 
C 1946 4032 2272 4009 2400 3776 
C 2298 3776 2106 3776 2106 3553 
C 2106 3381 2246 3323 2336 3323 
C 2394 3323 2566 3348 2566 3560 
C 2566 3954 2246 4179 1805 4179 
C 1043 4179 243 3390 243 1984 
C 243 253 966 -128 1478 -128 
C 2099 -128 2688 427 2688 1283 
C 2688 2081 2170 2662 1517 2662 
C 1126 2662 838 2407 678 1960 
L 678 2176 
z
M 1478 25 
C 691 25 691 1200 691 1436 
C 691 1896 909 2560 1504 2560 
C 1613 2560 1926 2560 2138 2120 
C 2253 1870 2253 1609 2253 1289 
C 2253 944 2253 690 2118 434 
C 1978 171 1773 25 1478 25 
z
" transform="scale(0.015625)"/>
       </defs>
       <use xlink:href="#CMR17-30" transform="scale(0.996264)"/>
       <use xlink:href="#CMMI12-3a" transform="translate(45.690477 0) scale(0.996264)"/>
       <use xlink:href="#CMR17-36" transform="translate(72.787654 0) scale(0.996264)"/>
      </g>
     </g>
    </g>
    <g id="ytick_5">
     <g id="line2d_11">
      <g>
       <use xlink:href="#mbfc364a550" x="38.830886" y="108.635356" style="stroke: #000000; stroke-width: 0.8"/>
      </g>
     </g>
     <g id="text_11">
      <!-- $\mathdefault{0.8}$ -->
      <g transform="translate(20.055677 111.748681) scale(0.09 -0.09)">
       <defs>
        <path id="CMR17-38" d="M 1741 2264 
C 2144 2467 2554 2773 2554 3263 
C 2554 3841 1990 4179 1472 4179 
C 890 4179 378 3759 378 3180 
C 378 3021 416 2747 666 2505 
C 730 2442 998 2251 1171 2130 
C 883 1983 211 1634 211 934 
C 211 279 838 -128 1459 -128 
C 2144 -128 2720 362 2720 1010 
C 2720 1590 2330 1857 2074 2029 
L 1741 2264 
z
M 902 2822 
C 851 2854 595 3051 595 3351 
C 595 3739 998 4032 1459 4032 
C 1965 4032 2336 3676 2336 3262 
C 2336 2669 1670 2331 1638 2331 
C 1632 2331 1626 2331 1574 2370 
L 902 2822 
z
M 2080 1519 
C 2176 1449 2483 1240 2483 851 
C 2483 381 2010 25 1472 25 
C 890 25 448 438 448 940 
C 448 1443 838 1862 1280 2060 
L 2080 1519 
z
" transform="scale(0.015625)"/>
       </defs>
       <use xlink:href="#CMR17-30" transform="scale(0.996264)"/>
       <use xlink:href="#CMMI12-3a" transform="translate(45.690477 0) scale(0.996264)"/>
       <use xlink:href="#CMR17-38" transform="translate(72.787654 0) scale(0.996264)"/>
      </g>
     </g>
    </g>
    <g id="ytick_6">
     <g id="line2d_12">
      <g>
       <use xlink:href="#mbfc364a550" x="38.830886" y="39.460172" style="stroke: #000000; stroke-width: 0.8"/>
      </g>
     </g>
     <g id="text_12">
      <!-- $\mathdefault{1.0}$ -->
      <g transform="translate(20.055677 42.573497) scale(0.09 -0.09)">
       <use xlink:href="#CMR17-31" transform="scale(0.996264)"/>
       <use xlink:href="#CMMI12-3a" transform="translate(45.690477 0) scale(0.996264)"/>
       <use xlink:href="#CMR17-30" transform="translate(72.787654 0) scale(0.996264)"/>
      </g>
     </g>
    </g>
    <g id="text_13">
     <!-- Predictive Std Dev -->
     <g transform="translate(14.118498 253.784673) rotate(-90) scale(0.1 -0.1)">
      <defs>
       <path id="CMR17-50" d="M 1267 2042 
L 2291 2042 
C 3117 2042 3718 2578 3718 3184 
C 3718 3791 3130 4352 2291 4352 
L 333 4352 
L 333 4186 
C 774 4186 845 4186 845 3899 
L 845 446 
C 845 160 774 160 333 160 
L 333 0 
C 518 0 858 0 1056 0 
C 1254 0 1594 0 1779 0 
L 1779 160 
C 1338 160 1267 160 1267 446 
L 1267 2042 
z
M 1254 2176 
L 1254 3938 
C 1254 4155 1267 4186 1523 4186 
L 2170 4186 
C 2995 4186 3232 3714 3232 3184 
C 3232 2604 2950 2176 2170 2176 
L 1254 2176 
z
" transform="scale(0.015625)"/>
       <path id="CMR17-72" d="M 960 1497 
C 960 2112 1222 2688 1702 2688 
C 1747 2688 1792 2682 1837 2662 
C 1837 2662 1696 2617 1696 2452 
C 1696 2298 1818 2234 1914 2234 
C 1990 2234 2131 2279 2131 2458 
C 2131 2663 1926 2790 1709 2790 
C 1222 2790 1011 2317 947 2093 
L 941 2093 
L 941 2790 
L 198 2720 
L 198 2554 
C 576 2554 634 2515 634 2208 
L 634 428 
C 634 184 608 153 198 153 
L 198 -13 
C 352 0 646 0 813 0 
C 998 0 1325 0 1498 -13 
L 1498 153 
C 1037 153 960 153 960 440 
L 960 1497 
z
" transform="scale(0.015625)"/>
       <path id="CMR17-65" d="M 2438 1472 
C 2464 1498 2464 1511 2464 1576 
C 2464 2238 2118 2816 1389 2816 
C 710 2816 173 2169 173 1383 
C 173 551 781 -64 1459 -64 
C 2176 -64 2458 607 2458 740 
C 2458 784 2419 784 2406 784 
C 2362 784 2355 771 2330 696 
C 2189 265 1837 51 1504 51 
C 1229 51 954 203 781 480 
C 582 803 582 1176 582 1472 
L 2438 1472 
z
M 589 1568 
C 634 2505 1126 2714 1382 2714 
C 1818 2714 2112 2297 2118 1568 
L 589 1568 
z
" transform="scale(0.015625)"/>
       <path id="CMR17-64" d="M 1869 4326 
L 1869 4160 
C 2246 4160 2304 4122 2304 3820 
L 2304 2345 
C 2278 2377 2016 2790 1498 2790 
C 845 2790 211 2208 211 1364 
C 211 525 806 -64 1434 -64 
C 1978 -64 2259 337 2291 380 
L 2291 -63 
L 3066 -63 
L 3066 128 
C 2688 128 2630 166 2630 473 
L 2630 4396 
L 1869 4326 
z
M 2291 755 
C 2291 563 2176 390 2029 262 
C 1811 70 1594 38 1472 38 
C 1286 38 621 134 621 1356 
C 621 2612 1363 2688 1530 2688 
C 1824 2688 2061 2522 2208 2291 
C 2291 2157 2291 2138 2291 2023 
L 2291 755 
z
" transform="scale(0.015625)"/>
       <path id="CMR17-69" d="M 992 3909 
C 992 4049 877 4170 730 4170 
C 589 4170 467 4056 467 3909 
C 467 3769 582 3648 730 3648 
C 870 3648 992 3763 992 3909 
z
M 243 2706 
L 243 2541 
C 602 2541 653 2502 653 2197 
L 653 427 
C 653 184 627 153 218 153 
L 218 -13 
C 371 0 646 0 806 0 
C 960 0 1222 0 1370 -13 
L 1370 153 
C 992 153 979 191 979 420 
L 979 2776 
L 243 2706 
z
" transform="scale(0.015625)"/>
       <path id="CMR17-63" d="M 2234 2240 
C 2112 2240 1933 2240 1933 2017 
C 1933 1838 2080 1787 2163 1787 
C 2208 1787 2394 1807 2394 2024 
C 2394 2467 1958 2803 1466 2803 
C 787 2803 211 2178 211 1363 
C 211 516 813 -64 1466 -64 
C 2259 -64 2458 677 2458 748 
C 2458 774 2451 793 2406 793 
C 2362 793 2355 787 2330 703 
C 2163 180 1798 51 1523 51 
C 1114 51 621 427 621 1369 
C 621 2338 1094 2688 1472 2688 
C 1722 2688 2093 2573 2234 2240 
z
" transform="scale(0.015625)"/>
       <path id="CMR17-74" d="M 966 2560 
L 1862 2560 
L 1862 2725 
L 966 2725 
L 966 3904 
L 851 3904 
C 838 3245 614 2668 70 2668 
L 70 2560 
L 627 2560 
L 627 771 
C 627 650 627 -64 1370 -64 
C 1747 -64 1965 306 1965 777 
L 1965 1140 
L 1850 1140 
L 1850 783 
C 1850 344 1677 51 1408 51 
C 1222 51 966 178 966 758 
L 966 2560 
z
" transform="scale(0.015625)"/>
       <path id="CMR17-76" d="M 2502 2163 
C 2560 2304 2662 2560 3034 2560 
L 3034 2726 
C 2912 2726 2752 2726 2630 2726 
C 2496 2726 2285 2726 2157 2732 
L 2157 2566 
C 2317 2553 2406 2477 2406 2311 
C 2406 2253 2406 2240 2368 2151 
L 1664 377 
L 902 2286 
C 864 2369 864 2381 864 2407 
C 864 2560 1075 2560 1171 2560 
L 1171 2732 
C 1018 2726 736 2726 576 2726 
C 403 2726 205 2726 64 2732 
L 64 2560 
C 307 2560 442 2560 518 2362 
L 1446 44 
C 1485 -51 1491 -64 1549 -64 
C 1606 -64 1613 -51 1651 44 
L 2502 2163 
z
" transform="scale(0.015625)"/>
       <path id="CMR17-53" d="M 2803 4290 
C 2803 4404 2797 4411 2758 4411 
C 2720 4411 2707 4385 2682 4328 
L 2490 3907 
C 2246 4257 1875 4416 1472 4416 
C 819 4416 294 3901 294 3253 
C 294 3056 339 2776 557 2510 
C 794 2218 1018 2167 1530 2033 
C 1722 1982 2042 1899 2106 1874 
C 2470 1722 2662 1341 2662 985 
C 2662 527 2336 38 1779 38 
C 1094 38 454 419 410 1311 
C 403 1413 397 1419 352 1419 
C 301 1419 294 1413 294 1285 
L 294 -1 
C 294 -115 301 -122 339 -122 
C 384 -122 397 -90 486 108 
C 493 127 493 140 614 381 
C 934 -39 1472 -128 1779 -128 
C 2477 -128 2970 451 2970 1124 
C 2970 1454 2848 1708 2778 1823 
C 2509 2230 2221 2306 1914 2382 
C 1869 2402 1856 2402 1498 2490 
C 1152 2579 1005 2624 845 2796 
C 666 2992 602 3196 602 3399 
C 602 3812 934 4263 1478 4263 
C 2157 4263 2579 3786 2675 2993 
C 2694 2878 2701 2872 2746 2872 
C 2803 2872 2803 2891 2803 2999 
L 2803 4290 
z
" transform="scale(0.015625)"/>
       <path id="CMR17-44" d="M 333 4352 
L 333 4186 
C 774 4186 845 4186 845 3900 
L 845 452 
C 845 166 774 166 333 166 
L 333 0 
L 2368 0 
C 3398 0 4224 943 4224 2141 
C 4224 3346 3411 4352 2368 4352 
L 333 4352 
z
M 1523 166 
C 1267 166 1254 197 1254 414 
L 1254 3938 
C 1254 4155 1267 4186 1523 4186 
L 2240 4186 
C 2771 4186 3750 3874 3750 2141 
C 3750 1242 3488 879 3366 707 
C 3213 510 2848 166 2240 166 
L 1523 166 
z
" transform="scale(0.015625)"/>
      </defs>
      <use xlink:href="#CMR17-50" transform="scale(0.996264)"/>
      <use xlink:href="#CMR17-72" transform="translate(62.586301 0) scale(0.996264)"/>
      <use xlink:href="#CMR17-65" transform="translate(97.867068 0) scale(0.996264)"/>
      <use xlink:href="#CMR17-64" transform="translate(138.352729 0) scale(0.996264)"/>
      <use xlink:href="#CMR17-69" transform="translate(189.248099 0) scale(0.996264)"/>
      <use xlink:href="#CMR17-63" transform="translate(214.119157 0) scale(0.996264)"/>
      <use xlink:href="#CMR17-74" transform="translate(254.604818 0) scale(0.996264)"/>
      <use xlink:href="#CMR17-69" transform="translate(289.885585 0) scale(0.996264)"/>
      <use xlink:href="#CMR17-76" transform="translate(314.756644 0) scale(0.996264)"/>
      <use xlink:href="#CMR17-65" transform="translate(360.447106 0) scale(0.996264)"/>
      <use xlink:href="#CMR17-53" transform="translate(431.008733 0) scale(0.996264)"/>
      <use xlink:href="#CMR17-74" transform="translate(481.904102 0) scale(0.996264)"/>
      <use xlink:href="#CMR17-64" transform="translate(517.18487 0) scale(0.996264)"/>
      <use xlink:href="#CMR17-44" transform="translate(598.156206 0) scale(0.996264)"/>
      <use xlink:href="#CMR17-65" transform="translate(668.549762 0) scale(0.996264)"/>
      <use xlink:href="#CMR17-76" transform="translate(709.035423 0) scale(0.996264)"/>
     </g>
    </g>
   </g>
   <g id="line2d_13">
    <path d="M 94.394979 385.336092 
L 94.394979 261.862723 
" clip-path="url(#p00793c2304)" style="fill: none; stroke: #3d3d3d; stroke-width: 1.875; stroke-linecap: square"/>
   </g>
   <g id="line2d_14">
    <path d="M 94.394979 346.84354 
L 94.394979 312.831657 
" clip-path="url(#p00793c2304)" style="fill: none; stroke: #3d3d3d; stroke-width: 5.625; stroke-linecap: square"/>
   </g>
   <g id="line2d_15">
    <path d="M 94.394979 331.72154 
" clip-path="url(#p00793c2304)" style="fill: none; stroke: #3d3d3d; stroke-width: 1.5; stroke-linecap: square"/>
    <defs>
     <path id="m9a68d089f4" d="M 2.34375 0 
L -2.34375 -0 
" style="stroke: #ffffff; stroke-width: 1.125"/>
    </defs>
    <g clip-path="url(#p00793c2304)">
     <use xlink:href="#m9a68d089f4" x="94.394979" y="331.72154" style="fill: #ffffff; stroke: #ffffff; stroke-width: 1.125"/>
    </g>
   </g>
   <g id="line2d_16">
    <path d="M 205.523165 385.336092 
L 205.523165 240.54809 
" clip-path="url(#p00793c2304)" style="fill: none; stroke: #3d3d3d; stroke-width: 1.875; stroke-linecap: square"/>
   </g>
   <g id="line2d_17">
    <path d="M 205.523165 339.282871 
L 205.523165 299.705227 
" clip-path="url(#p00793c2304)" style="fill: none; stroke: #3d3d3d; stroke-width: 5.625; stroke-linecap: square"/>
   </g>
   <g id="line2d_18">
    <path d="M 205.523165 321.500312 
" clip-path="url(#p00793c2304)" style="fill: none; stroke: #3d3d3d; stroke-width: 1.5; stroke-linecap: square"/>
    <g clip-path="url(#p00793c2304)">
     <use xlink:href="#m9a68d089f4" x="205.523165" y="321.500312" style="fill: #ffffff; stroke: #ffffff; stroke-width: 1.125"/>
    </g>
   </g>
   <g id="line2d_19">
    <path d="M 316.65135 385.336092 
L 316.65135 217.91458 
" clip-path="url(#p00793c2304)" style="fill: none; stroke: #3d3d3d; stroke-width: 1.875; stroke-linecap: square"/>
   </g>
   <g id="line2d_20">
    <path d="M 316.65135 330.728806 
L 316.65135 285.310041 
" clip-path="url(#p00793c2304)" style="fill: none; stroke: #3d3d3d; stroke-width: 5.625; stroke-linecap: square"/>
   </g>
   <g id="line2d_21">
    <path d="M 316.65135 310.087216 
" clip-path="url(#p00793c2304)" style="fill: none; stroke: #3d3d3d; stroke-width: 1.5; stroke-linecap: square"/>
    <g clip-path="url(#p00793c2304)">
     <use xlink:href="#m9a68d089f4" x="316.65135" y="310.087216" style="fill: #ffffff; stroke: #ffffff; stroke-width: 1.125"/>
    </g>
   </g>
   <g id="line2d_22">
    <path d="M 427.779536 385.336092 
L 427.779536 208.161981 
" clip-path="url(#p00793c2304)" style="fill: none; stroke: #3d3d3d; stroke-width: 1.875; stroke-linecap: square"/>
   </g>
   <g id="line2d_23">
    <path d="M 427.779536 327.119909 
L 427.779536 279.397001 
" clip-path="url(#p00793c2304)" style="fill: none; stroke: #3d3d3d; stroke-width: 5.625; stroke-linecap: square"/>
   </g>
   <g id="line2d_24">
    <path d="M 427.779536 305.588708 
" clip-path="url(#p00793c2304)" style="fill: none; stroke: #3d3d3d; stroke-width: 1.5; stroke-linecap: square"/>
    <g clip-path="url(#p00793c2304)">
     <use xlink:href="#m9a68d089f4" x="427.779536" y="305.588708" style="fill: #ffffff; stroke: #ffffff; stroke-width: 1.125"/>
    </g>
   </g>
   <g id="line2d_25">
    <path d="M 538.907722 385.336092 
L 538.907722 239.236988 
" clip-path="url(#p00793c2304)" style="fill: none; stroke: #3d3d3d; stroke-width: 1.875; stroke-linecap: square"/>
   </g>
   <g id="line2d_26">
    <path d="M 538.907722 338.69174 
L 538.907722 298.860228 
" clip-path="url(#p00793c2304)" style="fill: none; stroke: #3d3d3d; stroke-width: 5.625; stroke-linecap: square"/>
   </g>
   <g id="line2d_27">
    <path d="M 538.907722 320.710111 
" clip-path="url(#p00793c2304)" style="fill: none; stroke: #3d3d3d; stroke-width: 1.5; stroke-linecap: square"/>
    <g clip-path="url(#p00793c2304)">
     <use xlink:href="#m9a68d089f4" x="538.907722" y="320.710111" style="fill: #ffffff; stroke: #ffffff; stroke-width: 1.125"/>
    </g>
   </g>
   <g id="line2d_28">
    <path d="M 650.035907 385.336092 
L 650.035907 222.502847 
" clip-path="url(#p00793c2304)" style="fill: none; stroke: #3d3d3d; stroke-width: 1.875; stroke-linecap: square"/>
   </g>
   <g id="line2d_29">
    <path d="M 650.035907 332.783664 
L 650.035907 288.467226 
" clip-path="url(#p00793c2304)" style="fill: none; stroke: #3d3d3d; stroke-width: 5.625; stroke-linecap: square"/>
   </g>
   <g id="line2d_30">
    <path d="M 650.035907 312.661578 
" clip-path="url(#p00793c2304)" style="fill: none; stroke: #3d3d3d; stroke-width: 1.5; stroke-linecap: square"/>
    <g clip-path="url(#p00793c2304)">
     <use xlink:href="#m9a68d089f4" x="650.035907" y="312.661578" style="fill: #ffffff; stroke: #ffffff; stroke-width: 1.125"/>
    </g>
   </g>
   <g id="patch_3">
    <path d="M 38.830886 402.629888 
L 38.830886 22.166376 
" style="fill: none; stroke: #000000; stroke-width: 0.8; stroke-linejoin: miter; stroke-linecap: square"/>
   </g>
   <g id="patch_4">
    <path d="M 705.6 402.629888 
L 705.6 22.166376 
" style="fill: none; stroke: #000000; stroke-width: 0.8; stroke-linejoin: miter; stroke-linecap: square"/>
   </g>
   <g id="patch_5">
    <path d="M 38.830886 402.629888 
L 705.6 402.629888 
" style="fill: none; stroke: #000000; stroke-width: 0.8; stroke-linejoin: miter; stroke-linecap: square"/>
   </g>
   <g id="patch_6">
    <path d="M 38.830886 22.166376 
L 705.6 22.166376 
" style="fill: none; stroke: #000000; stroke-width: 0.8; stroke-linejoin: miter; stroke-linecap: square"/>
   </g>
   <g id="text_14">
    <!-- Distribution of Prediction Uncertainty (Violin Plot) -->
    <g transform="translate(239.115941 16.166376) scale(0.12 -0.12)">
     <defs>
      <path id="CMR17-73" d="M 1978 2697 
C 1978 2813 1971 2819 1933 2819 
C 1907 2819 1901 2813 1824 2717 
C 1805 2691 1747 2626 1728 2601 
C 1523 2819 1235 2819 1126 2819 
C 416 2819 160 2447 160 2076 
C 160 1498 813 1365 998 1325 
C 1402 1243 1542 1217 1677 1101 
C 1760 1025 1901 884 1901 654 
C 1901 384 1747 38 1158 38 
C 602 38 403 460 288 1021 
C 269 1110 269 1117 218 1117 
C 166 1117 160 1110 160 983 
L 160 63 
C 160 -51 166 -58 205 -58 
C 237 -58 243 -51 275 0 
C 314 57 410 211 448 276 
C 576 103 800 -64 1158 -64 
C 1792 -64 2131 283 2131 784 
C 2131 1112 1958 1285 1875 1362 
C 1683 1561 1459 1606 1190 1657 
C 838 1735 390 1825 390 2217 
C 390 2383 480 2737 1126 2737 
C 1811 2737 1850 2094 1862 1888 
C 1869 1856 1901 1849 1920 1849 
C 1978 1849 1978 1869 1978 1978 
L 1978 2697 
z
" transform="scale(0.015625)"/>
      <path id="CMR17-62" d="M 960 4396 
L 198 4326 
L 198 4160 
C 576 4160 634 4122 634 3817 
L 634 -13 
L 749 -13 
L 934 441 
C 1120 141 1395 -64 1766 -64 
C 2406 -64 3053 500 3053 1370 
C 3053 2188 2477 2790 1830 2790 
C 1434 2790 1152 2579 960 2330 
L 960 4396 
z
M 973 2004 
C 973 2118 973 2138 1062 2272 
C 1312 2657 1670 2688 1792 2688 
C 1984 2688 2643 2585 2643 1376 
C 2643 108 1888 38 1734 38 
C 1536 38 1248 114 1043 486 
C 973 608 973 621 973 735 
L 973 2004 
z
" transform="scale(0.015625)"/>
      <path id="CMR17-75" d="M 1882 2693 
L 1882 2528 
C 2259 2528 2317 2489 2317 2186 
L 2317 1032 
C 2317 500 2029 38 1555 38 
C 1030 38 986 348 986 678 
L 986 2763 
L 211 2693 
L 211 2528 
C 467 2528 640 2528 646 2274 
L 646 1058 
C 646 633 646 361 813 183 
C 896 101 1056 -64 1517 -64 
C 2061 -64 2272 377 2323 506 
L 2330 506 
L 2330 -63 
L 3091 -63 
L 3091 128 
C 2714 128 2656 166 2656 473 
L 2656 2763 
L 1882 2693 
z
" transform="scale(0.015625)"/>
      <path id="CMR17-6f" d="M 2758 1356 
C 2758 2176 2163 2816 1466 2816 
C 768 2816 173 2176 173 1356 
C 173 551 768 -64 1466 -64 
C 2163 -64 2758 551 2758 1356 
z
M 1466 51 
C 1165 51 909 230 762 480 
C 602 767 582 1126 582 1408 
C 582 1677 595 2010 762 2298 
C 890 2509 1139 2714 1466 2714 
C 1754 2714 1997 2554 2150 2330 
C 2349 2029 2349 1607 2349 1408 
C 2349 1158 2336 775 2163 467 
C 1984 173 1709 51 1466 51 
z
" transform="scale(0.015625)"/>
      <path id="CMR17-6e" d="M 2656 1933 
C 2656 2259 2592 2790 1837 2790 
C 1331 2790 1069 2400 973 2144 
L 966 2144 
L 966 2790 
L 211 2720 
L 211 2554 
C 589 2554 646 2515 646 2208 
L 646 428 
C 646 184 621 153 211 153 
L 211 -13 
C 365 0 646 0 813 0 
C 979 0 1267 0 1421 -13 
L 1421 153 
C 1011 153 986 178 986 428 
L 986 1658 
C 986 2247 1344 2688 1792 2688 
C 2266 2688 2317 2266 2317 1958 
L 2317 428 
C 2317 184 2291 153 1882 153 
L 1882 -13 
C 2035 0 2317 0 2483 0 
C 2650 0 2938 0 3091 -13 
L 3091 153 
C 2682 153 2656 178 2656 428 
L 2656 1933 
z
" transform="scale(0.015625)"/>
      <path id="CMR17-66" d="M 979 2560 
L 1709 2560 
L 1709 2725 
L 966 2725 
L 966 3494 
C 966 4022 1235 4352 1510 4352 
C 1594 4352 1690 4327 1754 4282 
C 1702 4269 1568 4225 1568 4067 
C 1568 3901 1696 3850 1786 3850 
C 1875 3850 2003 3901 2003 4067 
C 2003 4308 1773 4454 1517 4454 
C 1152 4454 653 4156 653 3481 
L 653 2725 
L 141 2725 
L 141 2560 
L 653 2560 
L 653 427 
C 653 184 627 153 218 153 
L 218 -13 
C 371 0 666 0 832 0 
C 1018 0 1344 0 1517 -13 
L 1517 153 
C 1056 153 979 153 979 439 
L 979 2560 
z
" transform="scale(0.015625)"/>
      <path id="CMR17-55" d="M 3456 1433 
C 3456 579 2899 38 2291 38 
C 1965 38 1670 210 1491 477 
C 1286 783 1261 1178 1261 1401 
L 1261 3874 
C 1261 4160 1331 4160 1773 4160 
L 1773 4320 
C 1587 4320 1248 4320 1050 4320 
C 851 4320 512 4320 326 4320 
L 326 4160 
C 768 4160 838 4160 838 3874 
L 838 1433 
C 838 516 1536 -128 2278 -128 
C 3110 -128 3590 719 3590 1344 
L 3590 3766 
C 3590 4122 3917 4160 4102 4160 
L 4102 4326 
C 3955 4320 3686 4320 3526 4320 
C 3366 4320 3091 4320 2944 4326 
L 2944 4160 
C 3456 4160 3456 3861 3456 3702 
L 3456 1433 
z
" transform="scale(0.015625)"/>
      <path id="CMR17-61" d="M 2304 1653 
C 2304 2072 2304 2294 2035 2543 
C 1798 2752 1523 2816 1306 2816 
C 800 2816 435 2407 435 1971 
C 435 1728 627 1728 666 1728 
C 749 1728 896 1778 896 1954 
C 896 2112 774 2181 666 2181 
C 640 2181 608 2174 589 2168 
C 723 2592 1069 2714 1293 2714 
C 1613 2714 1965 2429 1965 1885 
L 1965 1600 
C 1587 1600 1133 1549 774 1357 
C 371 1133 256 813 256 570 
C 256 77 832 -64 1171 -64 
C 1523 -64 1850 139 1990 511 
C 2003 233 2182 -18 2464 -18 
C 2598 -18 2938 70 2938 567 
L 2938 920 
L 2822 920 
L 2822 562 
C 2822 178 2650 128 2566 128 
C 2304 128 2304 458 2304 738 
L 2304 1653 
z
M 1965 870 
C 1965 317 1568 38 1216 38 
C 896 38 646 275 646 570 
C 646 761 730 1100 1101 1305 
C 1408 1478 1760 1504 1965 1504 
L 1965 870 
z
" transform="scale(0.015625)"/>
      <path id="CMR17-79" d="M 2496 2197 
C 2656 2586 2944 2586 3034 2586 
L 3034 2752 
C 2912 2752 2752 2752 2630 2752 
C 2496 2752 2285 2752 2157 2758 
L 2157 2592 
C 2400 2573 2406 2394 2406 2343 
C 2406 2280 2394 2248 2362 2171 
L 1664 449 
L 902 2306 
C 870 2382 870 2426 870 2433 
C 870 2573 1018 2586 1171 2586 
L 1171 2758 
C 1018 2752 742 2752 582 2752 
C 410 2752 205 2752 64 2758 
L 64 2586 
C 410 2586 448 2554 531 2350 
L 1485 15 
C 1197 -738 1030 -1178 627 -1178 
C 557 -1178 397 -1159 282 -1044 
C 429 -1031 493 -942 493 -833 
C 493 -725 416 -629 288 -629 
C 147 -629 77 -725 77 -840 
C 77 -1095 339 -1280 627 -1280 
C 998 -1280 1229 -922 1357 -604 
L 2496 2197 
z
" transform="scale(0.015625)"/>
      <path id="CMR17-28" d="M 1958 -1561 
C 1958 -1555 1958 -1542 1939 -1523 
C 1645 -1224 858 -407 858 1581 
C 858 3569 1632 4379 1946 4697 
C 1946 4704 1958 4717 1958 4736 
C 1958 4755 1939 4768 1914 4768 
C 1843 4768 1299 4296 986 3594 
C 666 2887 576 2199 576 1588 
C 576 1128 621 351 1005 -471 
C 1312 -1135 1837 -1600 1914 -1600 
C 1946 -1600 1958 -1587 1958 -1561 
z
" transform="scale(0.015625)"/>
      <path id="CMR17-56" d="M 3776 3745 
C 3834 3886 3936 4160 4365 4160 
L 4365 4332 
C 4218 4319 4051 4319 3891 4319 
C 3738 4319 3475 4319 3328 4332 
L 3328 4160 
C 3648 4160 3661 3936 3661 3898 
C 3661 3827 3642 3783 3622 3732 
L 2362 446 
L 1043 3886 
C 1024 3931 1011 3963 1011 3994 
C 1011 4160 1267 4160 1402 4160 
L 1402 4319 
C 1197 4319 896 4319 685 4319 
C 518 4319 218 4319 64 4332 
L 64 4160 
C 435 4160 506 4135 582 3931 
L 2106 -26 
C 2138 -115 2144 -128 2214 -128 
C 2285 -128 2291 -115 2323 -26 
L 3776 3745 
z
" transform="scale(0.015625)"/>
      <path id="CMR17-6c" d="M 979 4396 
L 218 4326 
L 218 4160 
C 595 4160 653 4122 653 3817 
L 653 426 
C 653 184 627 153 218 153 
L 218 -13 
C 371 0 653 0 813 0 
C 979 0 1261 0 1414 -13 
L 1414 153 
C 1005 153 979 178 979 426 
L 979 4396 
z
" transform="scale(0.015625)"/>
      <path id="CMR17-29" d="M 1683 1581 
C 1683 2040 1638 2817 1254 3639 
C 947 4303 422 4768 346 4768 
C 326 4768 301 4761 301 4729 
C 301 4717 307 4710 314 4697 
C 621 4378 1402 3568 1402 1584 
C 1402 -407 627 -1217 314 -1537 
C 307 -1549 301 -1556 301 -1568 
C 301 -1600 326 -1600 346 -1600 
C 416 -1600 960 -1128 1274 -426 
C 1594 281 1683 969 1683 1581 
z
" transform="scale(0.015625)"/>
     </defs>
     <use xlink:href="#CMR17-44" transform="scale(0.996264)"/>
     <use xlink:href="#CMR17-69" transform="translate(70.393556 0) scale(0.996264)"/>
     <use xlink:href="#CMR17-73" transform="translate(95.264614 0) scale(0.996264)"/>
     <use xlink:href="#CMR17-74" transform="translate(131.065952 0) scale(0.996264)"/>
     <use xlink:href="#CMR17-72" transform="translate(166.34672 0) scale(0.996264)"/>
     <use xlink:href="#CMR17-69" transform="translate(201.627488 0) scale(0.996264)"/>
     <use xlink:href="#CMR17-62" transform="translate(226.498546 0) scale(0.996264)"/>
     <use xlink:href="#CMR17-75" transform="translate(277.393916 0) scale(0.996264)"/>
     <use xlink:href="#CMR17-74" transform="translate(328.289286 0) scale(0.996264)"/>
     <use xlink:href="#CMR17-69" transform="translate(363.570053 0) scale(0.996264)"/>
     <use xlink:href="#CMR17-6f" transform="translate(388.441112 0) scale(0.996264)"/>
     <use xlink:href="#CMR17-6e" transform="translate(434.131589 0) scale(0.996264)"/>
     <use xlink:href="#CMR17-6f" transform="translate(515.102925 0) scale(0.996264)"/>
     <use xlink:href="#CMR17-66" transform="translate(560.793402 0) scale(0.996264)"/>
     <use xlink:href="#CMR17-50" transform="translate(618.342881 0) scale(0.996264)"/>
     <use xlink:href="#CMR17-72" transform="translate(680.929182 0) scale(0.996264)"/>
     <use xlink:href="#CMR17-65" transform="translate(716.209949 0) scale(0.996264)"/>
     <use xlink:href="#CMR17-64" transform="translate(756.69561 0) scale(0.996264)"/>
     <use xlink:href="#CMR17-69" transform="translate(807.59098 0) scale(0.996264)"/>
     <use xlink:href="#CMR17-63" transform="translate(832.462038 0) scale(0.996264)"/>
     <use xlink:href="#CMR17-74" transform="translate(872.947699 0) scale(0.996264)"/>
     <use xlink:href="#CMR17-69" transform="translate(908.228466 0) scale(0.996264)"/>
     <use xlink:href="#CMR17-6f" transform="translate(933.099525 0) scale(0.996264)"/>
     <use xlink:href="#CMR17-6e" transform="translate(978.790002 0) scale(0.996264)"/>
     <use xlink:href="#CMR17-55" transform="translate(1059.761338 0) scale(0.996264)"/>
     <use xlink:href="#CMR17-6e" transform="translate(1128.833768 0) scale(0.996264)"/>
     <use xlink:href="#CMR17-63" transform="translate(1179.729138 0) scale(0.996264)"/>
     <use xlink:href="#CMR17-65" transform="translate(1220.214798 0) scale(0.996264)"/>
     <use xlink:href="#CMR17-72" transform="translate(1260.700459 0) scale(0.996264)"/>
     <use xlink:href="#CMR17-74" transform="translate(1295.981226 0) scale(0.996264)"/>
     <use xlink:href="#CMR17-61" transform="translate(1331.261994 0) scale(0.996264)"/>
     <use xlink:href="#CMR17-69" transform="translate(1376.952471 0) scale(0.996264)"/>
     <use xlink:href="#CMR17-6e" transform="translate(1401.82353 0) scale(0.996264)"/>
     <use xlink:href="#CMR17-74" transform="translate(1450.116446 0) scale(0.996264)"/>
     <use xlink:href="#CMR17-79" transform="translate(1482.79476 0) scale(0.996264)"/>
     <use xlink:href="#CMR17-28" transform="translate(1561.163642 0) scale(0.996264)"/>
     <use xlink:href="#CMR17-56" transform="translate(1596.44441 0) scale(0.996264)"/>
     <use xlink:href="#CMR17-69" transform="translate(1665.516839 0) scale(0.996264)"/>
     <use xlink:href="#CMR17-6f" transform="translate(1690.387898 0) scale(0.996264)"/>
     <use xlink:href="#CMR17-6c" transform="translate(1736.078375 0) scale(0.996264)"/>
     <use xlink:href="#CMR17-69" transform="translate(1760.949433 0) scale(0.996264)"/>
     <use xlink:href="#CMR17-6e" transform="translate(1785.820492 0) scale(0.996264)"/>
     <use xlink:href="#CMR17-50" transform="translate(1866.791828 0) scale(0.996264)"/>
     <use xlink:href="#CMR17-6c" transform="translate(1929.378129 0) scale(0.996264)"/>
     <use xlink:href="#CMR17-6f" transform="translate(1954.249187 0) scale(0.996264)"/>
     <use xlink:href="#CMR17-74" transform="translate(1999.939664 0) scale(0.996264)"/>
     <use xlink:href="#CMR17-29" transform="translate(2035.220432 0) scale(0.996264)"/>
    </g>
   </g>
  </g>
 </g>
 <defs>
  <clipPath id="p00793c2304">
   <rect x="38.830886" y="22.166376" width="666.769114" height="380.463512"/>
  </clipPath>
 </defs>
</svg>
